<?xml version="1.0" encoding="UTF-8"?>
<svg id="Layer_1" data-name="Layer 1" xmlns="http://www.w3.org/2000/svg" viewBox="0 0 48.021418 45.319532">
  <defs>
    <style>
      .cls-1 {
        fill: #cbd5e1;
      }
    </style>
  </defs>
  <path class="cls-1" d="M.021418,25.56v-3.6c1.52,0,2.75-.459999,3.69-1.38,.94-.920001,2.31-1.38,4.11-1.38s3.200001,.54,4.2,1.62,2.28,1.62,3.84,1.62,2.859999-.54,3.9-1.62,2.46-1.62,4.26-1.62,3.21,.54,4.23,1.62,2.31,1.62,3.87,1.62,2.85-.54,3.87-1.62,2.43-1.62,4.23-1.62,3.169999,.459999,4.11,1.38,2.170001,1.38,3.69,1.38v3.6c-1.879999,0-3.27-.459999-4.17-1.38s-2.110001-1.38-3.63-1.38-2.800001,.54-3.84,1.62-2.46,1.62-4.26,1.62-3.220001-.54-4.26-1.62-2.319999-1.62-3.84-1.62-2.810001,.54-3.87,1.62-2.49,1.62-4.29,1.62-3.21-.54-4.23-1.62-2.29-1.62-3.81-1.62-2.73,.459999-3.63,1.38S1.901418,25.56,.021418,25.56ZM.021418,15.96v-3.6c1.52,0,2.75-.459999,3.69-1.38,.94-.920001,2.31-1.38,4.11-1.38s3.200001,.54,4.2,1.62,2.28,1.62,3.84,1.62,2.859999-.54,3.9-1.62,2.46-1.62,4.26-1.62,3.21,.54,4.23,1.62,2.31,1.62,3.87,1.62,2.85-.54,3.87-1.62,2.43-1.62,4.23-1.62,3.169999,.459999,4.11,1.38,2.170001,1.38,3.69,1.38v3.6c-1.879999,0-3.27-.459999-4.17-1.38s-2.110001-1.38-3.63-1.38-2.800001,.54-3.84,1.62-2.46,1.62-4.26,1.62-3.220001-.54-4.26-1.62-2.319999-1.62-3.84-1.62-2.810001,.54-3.87,1.62-2.49,1.62-4.29,1.62-3.21-.54-4.23-1.62-2.29-1.62-3.81-1.62-2.73,.459999-3.63,1.38S1.901418,15.96,.021418,15.96ZM.021418,6.36V2.76c1.52,0,2.75-.460001,3.69-1.38,.94-.919999,2.31-1.38,4.11-1.38s3.200001,.54,4.2,1.62,2.28,1.62,3.84,1.62,2.859999-.54,3.9-1.62,2.46-1.62,4.26-1.62,3.21,.54,4.23,1.62,2.31,1.62,3.87,1.62,2.85-.54,3.87-1.62,2.43-1.62,4.23-1.62,3.169999,.460001,4.11,1.38,2.170001,1.38,3.69,1.38v3.6c-1.879999,0-3.27-.460001-4.17-1.38s-2.110001-1.38-3.63-1.38-2.800001,.54-3.84,1.62-2.46,1.62-4.26,1.62-3.220001-.54-4.26-1.62-2.319999-1.62-3.84-1.62-2.810001,.54-3.87,1.62-2.49,1.62-4.29,1.62-3.21-.54-4.23-1.62-2.29-1.62-3.81-1.62-2.73,.460001-3.63,1.38S1.901418,6.36,.021418,6.36Z"/>
  <path class="cls-1" d="M0,44.839532v-3.6c1.52,0,2.75-.459999,3.69-1.38,.94-.920001,2.31-1.38,4.11-1.38s3.200001,.54,4.2,1.62,2.28,1.62,3.84,1.62,2.859999-.54,3.9-1.62,2.46-1.62,4.26-1.62,3.21,.54,4.23,1.62,2.31,1.62,3.87,1.62,2.85-.54,3.87-1.62,2.43-1.62,4.23-1.62,3.169999,.459999,4.11,1.38,2.170001,1.38,3.69,1.38v3.6c-1.879999,0-3.27-.459999-4.17-1.38s-2.110001-1.38-3.63-1.38-2.800001,.54-3.84,1.62-2.46,1.62-4.26,1.62-3.220001-.54-4.26-1.62-2.319999-1.62-3.84-1.62-2.810001,.54-3.87,1.62-2.49,1.62-4.29,1.62-3.21-.54-4.23-1.62-2.29-1.62-3.81-1.62-2.73,.459999-3.63,1.38-2.29,1.38-4.17,1.38Zm0-9.6v-3.6c1.52,0,2.75-.459999,3.69-1.38,.94-.920001,2.31-1.38,4.11-1.38s3.200001,.54,4.2,1.62,2.28,1.62,3.84,1.62,2.859999-.54,3.9-1.62,2.46-1.62,4.26-1.62,3.21,.54,4.23,1.62,2.31,1.62,3.87,1.62,2.85-.54,3.87-1.62,2.43-1.62,4.23-1.62,3.169999,.459999,4.11,1.38,2.170001,1.38,3.69,1.38v3.6c-1.879999,0-3.27-.459999-4.17-1.38s-2.110001-1.38-3.63-1.38-2.800001,.54-3.84,1.62-2.46,1.62-4.26,1.62-3.220001-.54-4.26-1.62-2.319999-1.62-3.84-1.62-2.810001,.54-3.87,1.62-2.49,1.62-4.29,1.62-3.21-.54-4.23-1.62-2.29-1.62-3.81-1.62-2.73,.459999-3.63,1.38-2.29,1.38-4.17,1.38Zm0-9.6v-3.6c1.52,0,2.75-.460001,3.69-1.38,.94-.919999,2.31-1.38,4.11-1.38s3.200001,.54,4.2,1.62,2.28,1.62,3.84,1.62,2.859999-.54,3.9-1.62,2.46-1.62,4.26-1.62,3.21,.54,4.23,1.62,2.31,1.62,3.87,1.62,2.85-.54,3.87-1.62,2.43-1.62,4.23-1.62,3.169999,.460001,4.11,1.38,2.170001,1.38,3.69,1.38v3.6c-1.879999,0-3.27-.460001-4.17-1.38s-2.110001-1.38-3.63-1.38-2.800001,.54-3.84,1.62-2.46,1.62-4.26,1.62-3.220001-.54-4.26-1.62-2.319999-1.62-3.84-1.62-2.810001,.54-3.87,1.62-2.49,1.62-4.29,1.62-3.21-.54-4.23-1.62-2.29-1.62-3.81-1.62-2.73,.460001-3.63,1.38-2.29,1.38-4.17,1.38Z"/>
</svg>