<?xml version="1.0" encoding="UTF-8"?>
<svg id="Layer_1" data-name="Layer 1" xmlns="http://www.w3.org/2000/svg" viewBox="0 0 48.020862 45.32441">
  <defs>
    <style>
      .cls-1 {
        fill: #0284c7;
      }

      .cls-2 {
        fill: #7dd3fc;
      }

      .cls-3 {
        fill: #bae6fd;
      }

      .cls-4 {
        fill: #0ea5e9;
      }

      .cls-5 {
        fill: #38bdf8;
      }
    </style>
  </defs>
  <path class="cls-3" d="M.000005,25.559999v-3.6c1.52,0,2.75-.459999,3.69-1.379999s2.31-1.379999,4.11-1.379999,3.200001,.540001,4.199999,1.620001,2.28,1.620001,3.84,1.620001,2.859999-.540001,3.9-1.620001,2.459999-1.620001,4.26-1.620001,3.210001,.540001,4.23,1.620001,2.309999,1.620001,3.870001,1.620001,2.849998-.540001,3.869999-1.620001,2.43-1.620001,4.23-1.620001,3.169998,.459999,4.110001,1.379999,2.170002,1.379999,3.689999,1.379999v3.6c-1.879997,0-3.27-.459999-4.169998-1.379999s-2.110001-1.379999-3.630001-1.379999-2.799999,.540001-3.84,1.620001-2.459999,1.620001-4.260002,1.620001-3.220001-.540001-4.26-1.620001-2.32-1.620001-3.84-1.620001-2.810001,.540001-3.870001,1.620001-2.49,1.620001-4.29,1.620001-3.21-.540001-4.23-1.620001-2.29-1.620001-3.81-1.620001-2.73,.459999-3.63,1.379999S1.880005,25.559999,.000005,25.559999Z"/>
  <path class="cls-3" d="M.000005,12.360001V2.76c1.52,0,2.75-.460001,3.69-1.38,.94-.919999,2.31-1.38,4.11-1.38s3.200002,.54,4.2,1.62c.999998,1.08,2.28,1.62,3.84,1.62s2.859998-.54,3.899999-1.62c1.040001-1.08,2.459999-1.62,4.26-1.62s3.210001,.54,4.23,1.62c1.019999,1.08,2.309999,1.62,3.870003,1.62s2.849998-.54,3.869999-1.62c1.02-1.08,2.43-1.62,4.23-1.62s3.169998,.460001,4.110001,1.38c.940002,.919999,2.170002,1.38,3.689999,1.38,.050896,3.482064-.030038,7.095953,.020858,10.578017-1.861927-.04498-2.939822-.699926-3.70309-1.173407-1.223305-.758857-1.830612-1.719481-3.03006-1.751753-.199127-.005358-.93301,.000923-1.846443,.142034-.333546,.051528-.619743,.11002-.757515,.142035-1.154228,.268211-1.791733,.978664-2.55661,1.467685-1.106853,.70766-2.201477,.773268-4.308365,.899549-1.248596,.074837-1.872896,.112256-2.414577-.094689-1.521255-.581182-1.540131-1.866038-2.982714-2.177855-.694729-.150167-.843842,.114648-2.13051-.047345-1.121695-.141222-1.158348-.361365-1.704409-.378757-1.645714-.052417-1.988117,1.925621-4.450397,2.935369-.37693,.154574-1.396875,.529778-2.698647,.473447-.359863-.015573-1.332345-.089699-3.692884-1.230961-2.545647-1.230757-2.303347-1.574203-3.314126-1.751753-1.463074-.256999-2.135805,.433584-4.687122,1.041582C2.187702,12.203929,.872802,12.320123,.000005,12.360001Z"/>
  <path class="cls-2" d="M.003163,23.622019C.00211,19.868013,.001058,16.114006,.000005,12.360001c1.52,0,2.75-.459999,3.69-1.38s2.31-1.38,4.11-1.38,3.200002,.54,4.2,1.62,2.28,1.62,3.84,1.62,2.859998-.54,3.899999-1.62,2.459999-1.62,4.26-1.62,3.210001,.54,4.23,1.62,2.309999,1.62,3.870003,1.62,2.849998-.54,3.869999-1.62,2.43-1.62,4.23-1.62,3.169998,.459999,4.110001,1.38,2.170002,1.38,3.689999,1.38c-.01223,3.39103-.024464,6.782061-.036694,10.17309-.680672-.06019-1.533195-.159548-2.509266-.331411-1.208698-.212822-1.833679-.322866-2.651302-.61548-1.200104-.429497-1.255184-.69401-2.367233-1.041584-.987629-.308687-1.563381-.48864-2.225201-.378757-1.645039,.273125-1.626205,1.972403-3.503506,2.698647-1.094669,.423479-2.159122,.255011-3.172092,.09469-1.306402-.206762-2.28763-.676174-2.745989-.899549-1.225449-.597204-1.349527-.950262-2.603958-1.467684-.580011-.239241-1.204336-.491327-2.03582-.568136-.247225-.022837-1.283318-.10136-2.745991,.426102-2.099613,.757153-2.10663,1.691368-3.882263,2.225199-.360956,.108519-1.54958,.451059-2.935369,.142035-1.702327-.379612-1.747725-1.30661-3.882262-2.083166-.335286-.121979-1.462332-.509539-2.982714-.568136-.30546-.011772-1.408625-.0404-2.603957,.236725C2.467051,21.0168,.701424,22.823153,.003163,23.622019Z"/>
  <path class="cls-5" d="M.000011,31.849653v-9.810121c1.52,0,2.75-.460001,3.69-1.379999s2.31-1.379999,4.11-1.379999,3.200001,.540001,4.2,1.620001,2.28,1.620001,3.84,1.620001,2.859999-.540001,3.9-1.620001,2.460001-1.620001,4.26-1.620001,3.209999,.540001,4.23,1.620001,2.309999,1.620001,3.869999,1.620001,2.849998-.540001,3.869999-1.620001,2.43-1.620001,4.23-1.620001,3.169998,.460001,4.110001,1.379999,2.170002,1.379999,3.689999,1.379999v10.295069c-1.879997,0-3.348684-.084536-4.248686-1.004534s-1.839992-1.905151-3.359993-1.905151-1.280819-.69897-2.32082,.38103-4.019366,3.152158-5.819369,3.152158-3.428445-.825151-4.468444-1.905151-2.290301-1.454842-3.810301-1.454842-1.607211-.69897-2.667211,.38103-3.707617,2.944324-5.507617,2.944324-3.240609-1.24082-4.260609-2.32082-2.359579-.831338-3.879579-.831338-2.737105,.223092-3.637106,1.14309S1.882137,32.299961,.002137,32.299961L.000011,31.849653Z"/>
  <path class="cls-4" d="M.000011,35.239532v-3.6c1.52,0,2.75-.459999,3.69-1.379999s2.31-1.379999,4.11-1.379999,3.200001,.540001,4.2,1.620001,2.28,1.619999,3.84,1.619999,2.859999-.540001,3.9-1.620001,2.460001-1.620001,4.26-1.620001,3.209999,.540001,4.23,1.620001,2.309999,1.620001,3.869999,1.620001,2.849998-.540001,3.869999-1.620001,2.43-1.620001,4.23-1.620001,3.169998,.459999,4.110001,1.379999,2.170002,1.379999,3.689999,1.379999v10.0251c-1.879997,0-3.296839-.823138-4.196841-1.74314s-2.357596-.74706-3.877596-.74706-2.197258,.165102-3.237259,1.2451-2.611207,2.241179-4.41121,2.241179-3.620231-1.23233-4.66023-2.312328-2.179724-.889357-3.699725-.889357-1.074457-.688681-2.134457,.391317-2.682359,2.596922-4.482359,2.596922-4.733437-.757586-5.753438-1.837584-1.389915-1.454957-2.909915-1.454957-3.252691-.495639-4.152691,.424363-2.604288,2.273371-4.484288,2.273371l.000011-6.612924Z"/>
  <path class="cls-1" d="M.000011,45.280683v-4.04115c1.52,0,2.75-.459999,3.69-1.380001s2.31-1.380001,4.11-1.380001,3.200001,.540001,4.2,1.619999,2.28,1.619999,3.84,1.619999,2.859999-.540001,3.9-1.619999,2.460001-1.619999,4.26-1.619999,3.209999,.540001,4.23,1.619999,2.309999,1.619999,3.869999,1.619999,2.849998-.540001,3.869999-1.619999,2.43-1.619999,4.23-1.619999,3.169998,.459999,4.110001,1.380001,2.170002,1.380001,3.689999,1.380001c-.005718,1.346859-.011433,2.693722-.017151,4.040581-25.832867,.065781-37.533373,.05177-47.982846,.000569Z"/>
</svg>