<?xml version="1.0" encoding="UTF-8"?>
<svg id="Layer_1" data-name="Layer 1" xmlns="http://www.w3.org/2000/svg" xmlns:xlink="http://www.w3.org/1999/xlink" viewBox="2 0 220.12 39">
  <defs>
    <style>
      .cls-1 {
        fill: url(#linear-gradient);
      }

      .cls-2 {
        font-family: Teko-Bold, Teko;
        font-size: 48px;
        font-weight: 700;
      }
    </style>
    <linearGradient id="linear-gradient" x1="1.92" y1="24" x2="219.16" y2="24" gradientUnits="userSpaceOnUse">
      <stop offset="0" stop-color="#dc2626"/>
      <stop offset="1" stop-color="#f87171"/>
    </linearGradient>
  </defs>
  <text class="cls-2" transform="translate(0 39.41)"><tspan x="0" y="0">BATTLESHIP</tspan></text>
  <g>
    <path class="cls-1" d="M1.92,8.59h14.11c2.56,0,4.38,.54,5.45,1.63,1.07,1.09,1.61,2.53,1.61,4.32v3.94c0,1.25-.15,2.34-.46,3.26-.3,.93-.92,1.65-1.85,2.16,.93,.42,1.54,1.04,1.85,1.87,.3,.83,.46,1.86,.46,3.07v4.61c0,1.79-.54,3.23-1.61,4.32-1.07,1.09-2.89,1.63-5.45,1.63H1.92V8.59Zm12.91,11.57v-4.99c0-.35-.1-.62-.29-.79-.19-.18-.5-.26-.91-.26h-3.46v7.1h3.46c.42,0,.72-.09,.91-.26,.19-.18,.29-.44,.29-.79Zm0,12.67v-5.04c0-.35-.1-.62-.29-.79s-.5-.26-.91-.26h-3.46v7.15h3.46c.42,0,.72-.09,.91-.26s.29-.44,.29-.79Z"/>
    <path class="cls-1" d="M50.83,39.41h-8.45l-4.61-21.65-4.75,21.65h-8.26l7.92-30.82h10.22l7.92,30.82Zm-5.28-10.56v5.95h-15.41v-5.95h15.41Z"/>
    <path class="cls-1" d="M71.33,8.59v6h-20.26v-6h20.26Zm-14.35,2.88h8.4v27.94h-8.4V11.47Z"/>
    <path class="cls-1" d="M92.06,8.59v6h-20.26v-6h20.26Zm-14.35,2.88h8.4v27.94h-8.4V11.47Z"/>
    <path class="cls-1" d="M94.22,8.59h8.4v30.82h-8.4V8.59Zm2.78,30.82v-6h15.17v6h-15.17Z"/>
    <path class="cls-1" d="M114.09,8.59h8.4v30.82h-8.4V8.59Zm18.48,0v6h-15.5v-6h15.5Zm.43,24.82v6h-15.94v-6h15.94Zm-1.82-12.53v6h-13.49v-6h13.49Z"/>
    <path class="cls-1" d="M147.45,32.35v-4.37c0-.35-.1-.62-.29-.79-.19-.18-.5-.26-.91-.26h-4.61c-2.5,0-4.2-.56-5.11-1.68-.91-1.12-1.37-2.58-1.37-4.37v-6.34c0-1.79,.53-3.23,1.58-4.32,1.06-1.09,2.86-1.63,5.42-1.63h6.58c2.56,0,4.37,.54,5.42,1.63,1.06,1.09,1.58,2.53,1.58,4.32v3.7h-8.4v-2.59c0-.35-.1-.62-.29-.79-.19-.18-.5-.26-.91-.26h-1.39c-.42,0-.72,.09-.91,.26s-.29,.44-.29,.79v4.56c0,.35,.1,.62,.29,.79,.19,.18,.5,.26,.91,.26h4.51c2.5,0,4.22,.53,5.16,1.58,.94,1.06,1.42,2.48,1.42,4.27v6.34c0,1.79-.53,3.23-1.58,4.32s-2.86,1.63-5.42,1.63h-6.53c-2.56,0-4.38-.54-5.45-1.63s-1.61-2.53-1.61-4.32v-3.7h8.4v2.59c0,.35,.1,.62,.29,.79,.19,.18,.5,.26,.91,.26h1.39c.42,0,.72-.09,.91-.26,.19-.17,.29-.44,.29-.79Z"/>
    <path class="cls-1" d="M159.21,8.59h8.26v30.82h-8.26V8.59Zm15.36,12.62v6h-8.64v-6h8.64Zm-1.06-12.62h8.26v30.82h-8.26V8.59Z"/>
    <path class="cls-1" d="M185.61,8.59h8.4v30.82h-8.4V8.59Z"/>
    <path class="cls-1" d="M197.85,8.59h8.4v30.82h-8.4V8.59Zm12.91,13.68v-6.62c0-.35-.1-.62-.29-.79s-.5-.26-.91-.26h-8.93v-6h11.47c2.56,0,4.38,.54,5.45,1.63,1.07,1.09,1.61,2.53,1.61,4.32v8.83c0,1.79-.54,3.23-1.61,4.32-1.07,1.09-2.89,1.63-5.45,1.63h-11.47v-6h8.93c.42,0,.72-.09,.91-.26,.19-.18,.29-.44,.29-.79Z"/>
  </g>
</svg>