<?xml version="1.0" encoding="UTF-8"?>
<svg id="Layer_1" data-name="Layer 1" xmlns="http://www.w3.org/2000/svg" viewBox="0 0 799.997546 799.99992">
  <defs>
    <style>
      .cls-1 {
        fill: #dc2626;
      }
    </style>
  </defs>
  <path class="cls-1" d="M400.001184,174.846722c-124.149952,0-225.154462,101.00451-225.154462,225.154462s101.00451,225.154462,225.154462,225.154462,225.154462-101.004529,225.154462-225.154462-101.00208-225.154462-225.154462-225.154462Zm0,406.541925c-100.017326,0-181.387463-81.370137-181.387463-181.387463s81.370137-181.387463,181.387463-181.387463,181.387463,81.370137,181.387463,181.387463-81.367688,181.387463-181.387463,181.387463Z"/>
  <path class="cls-1" d="M400.001184,334.669241c-36.022678,0-65.33198,29.306854-65.33198,65.33198s29.306854,65.33198,65.33198,65.33198,65.33198-29.306854,65.33198-65.33198c.002449-36.025127-29.309303-65.33198-65.33198-65.33198Zm0,86.894513c-11.890033,0-21.564981-9.674948-21.564981-21.564981s9.674948-21.564981,21.564981-21.564981,21.564981,9.674948,21.564981,21.564981c.002449,11.890033-9.674948,21.564981-21.564981,21.564981Z"/>
  <path class="cls-1" d="M778.118869,378.117685h-21.722997c-10.90769-179.500617-155.005711-323.603456-334.506327-334.508734V21.8835c0-12.086987-9.79653-21.8835-21.8835-21.8835s-21.8835,9.796513-21.8835,21.8835v21.723021C198.617068,54.514229,54.514229,198.617068,43.60895,378.117685H21.8835c-12.086987,0-21.8835,9.79653-21.8835,21.8835s9.796513,21.8835,21.8835,21.8835h21.723021c10.907709,179.500617,155.008118,323.603497,334.508753,334.508739v21.722997c0,12.087006,9.79653,21.8835,21.8835,21.8835s21.8835-9.796493,21.8835-21.8835v-21.722997c179.500617-10.90769,323.60346-155.008122,334.508776-334.508739h21.722997c12.087006,0,21.8835-9.79653,21.8835-21.8835s-9.79167-21.8835-21.878676-21.8835Zm-65.575108,43.713499c-10.747262,155.402032-135.310546,279.965315-290.712578,290.712578-.554374-11.593405-10.100468-20.828252-21.829999-20.828252s-21.275625,9.234847-21.829999,20.828252c-155.402032-10.749637-279.965334-135.312958-290.712559-290.714989,11.593396-.554374,20.828233-10.100468,20.828233-21.829999s-9.234838-21.275625-20.828233-21.829999C98.205852,222.769191,222.769154,98.20587,378.171186,87.456215c.554374,11.593396,10.100468,20.828233,21.829999,20.828233s21.275625-9.234838,21.829999-20.828233c155.402032,10.749665,279.965315,135.312976,290.712578,290.714971-11.593405,.554374-20.828252,10.100468-20.828252,21.829999s9.234847,21.275625,20.828252,21.829999Z"/>
</svg>